<svg xmlns="http://www.w3.org/2000/svg" width="12" height="24" viewBox="0 0 12 24">
  <path id="path2" d="M15,24.286A4.286,4.286,0,0,1,10.714,20V6.284a2.569,2.569,0,0,1,2.57-2.57h0a2.569,2.569,0,0,1,2.57,2.57v12a.855.855,0,0,1-.855.855h0a.857.857,0,0,1-.857-.857V8a.857.857,0,0,0-1.714,0V18.286A2.571,2.571,0,0,0,15,20.857h0a2.569,2.569,0,0,0,2.57-2.57v-12A4.284,4.284,0,0,0,13.287,2h0A4.284,4.284,0,0,0,9,6.284V20a6,6,0,1,0,12,0V8a.857.857,0,0,0-1.714,0V20A4.285,4.285,0,0,1,15,24.286Z" transform="translate(-9 -2)" fill="#00368c" fill-rule="evenodd"/>
</svg>
