<svg xmlns="http://www.w3.org/2000/svg" width="16" height="12" viewBox="0 0 16 12">
  <g id="_01_align_center" data-name="01 align center" transform="translate(0 -3)">
    <path id="Tracciato_210" data-name="Tracciato 210" d="M15.881,8.454h0C15.3,7.174,13,3,8,3S.7,7.174.119,8.454a1.313,1.313,0,0,0,0,1.093C.7,10.826,3,15,8,15s7.3-4.174,7.881-5.454A1.312,1.312,0,0,0,15.881,8.454ZM8,13.667c-4.2,0-6.167-3.577-6.667-4.659C1.833,7.911,3.8,4.333,8,4.333S14.158,7.9,14.667,9C14.158,10.1,12.2,13.667,8,13.667Z" transform="translate(0 0)"/>
    <path id="Tracciato_211" data-name="Tracciato 211" d="M10.314,7a3.349,3.349,0,1,0,3.314,3.349A3.332,3.332,0,0,0,10.314,7Zm0,5.358A2.009,2.009,0,1,1,12.3,10.349,2,2,0,0,1,10.314,12.358Z" transform="translate(-2.314 -1.348)"/>
  </g>
</svg>
