<svg xmlns="http://www.w3.org/2000/svg" width="16" height="14.276" viewBox="0 0 16 14.276">
  <g id="_01_align_center" data-name="01 align center" transform="translate(0 -1.293)">
    <path id="Tracciato_212" data-name="Tracciato 212" d="M15.881,7.885h0a10.491,10.491,0,0,0-2.763-3.627l2.021-2.021L14.2,1.293,12,3.486A7.856,7.856,0,0,0,8,2.431C3,2.431.7,6.605.119,7.885a1.313,1.313,0,0,0,0,1.093,10.491,10.491,0,0,0,2.763,3.627L.862,14.627l.943.943L4,13.376a7.856,7.856,0,0,0,4,1.055c5,0,7.3-4.174,7.881-5.454A1.312,1.312,0,0,0,15.881,7.885ZM1.333,8.439C1.833,7.342,3.8,3.764,8,3.764a6.565,6.565,0,0,1,3.012.712L9.836,5.653a3.328,3.328,0,0,0-4.613,4.613L3.836,11.653a9.1,9.1,0,0,1-2.5-3.214ZM10,8.431a2,2,0,0,1-2,2,1.967,1.967,0,0,1-.857-.2L9.8,7.574A1.967,1.967,0,0,1,10,8.431Zm-4,0a2,2,0,0,1,2-2,1.967,1.967,0,0,1,.857.2L6.2,9.288A1.967,1.967,0,0,1,6,8.431ZM8,13.1a6.565,6.565,0,0,1-3.012-.712l1.177-1.177A3.328,3.328,0,0,0,10.778,6.6L12.164,5.21a9.056,9.056,0,0,1,2.5,3.221C14.158,9.536,12.2,13.1,8,13.1Z" transform="translate(0)"/>
  </g>
</svg>
